<?xml version="1.0" encoding="UTF-8" standalone="no"?>
<!-- Created with Inkscape (http://www.inkscape.org/) -->

<svg
   width="149.88576mm"
   height="114.88415mm"
   viewBox="0 0 149.88576 114.88415"
   version="1.1"
   id="svg1"
   xml:space="preserve"
   xmlns="http://www.w3.org/2000/svg"
   xmlns:svg="http://www.w3.org/2000/svg"><defs
     id="defs1" /><g
     id="layer1"
     transform="translate(-26.839678,-32.53324)"><g
       id="g31"><path
         id="path17"
         style="fill:#000000"
         d="m 58.479635,40.015645 c -0.312309,0.0096 -0.605687,0.04729 -0.874366,0.114722 -0.427576,0.107317 -0.850762,0.505733 -1.106392,1.041797 -0.36945,0.774741 -0.371574,0.970188 -0.02015,1.811259 0.35672,0.853745 0.575951,0.997919 2.326473,1.529622 1.063026,0.322884 2.429631,0.928634 3.036507,1.346171 1.517106,1.043796 3.321196,3.107866 4.224032,4.832263 l 0.754476,1.440739 -1.523938,1.683619 c -2.995308,3.309921 -4.221195,7.017657 -3.678329,11.123868 0.1604,1.213045 0.256541,2.241039 0.213941,2.284099 -0.04262,0.04306 -1.84764,-0.517388 -4.011642,-1.245402 -5.814486,-1.956113 -8.676183,-2.489274 -13.459643,-2.506824 -4.610234,-0.01691 -7.151675,0.516077 -10.313583,2.162659 -7.724938,4.022802 -9.60763,14.037433 -3.849894,20.479887 3.457838,3.869044 9.266407,6.263838 15.253333,6.289538 2.329098,0.01001 5.934129,-0.532223 7.715291,-1.160653 0.614076,-0.216676 1.116728,-0.341602 1.116728,-0.277502 0,0.06411 -0.301607,1.155916 -0.669727,2.426208 -1.868702,6.448506 -1.202495,13.301975 1.901693,19.565735 2.520788,5.08651 6.438934,8.9089 11.9972,11.70471 l 3.042709,1.53014 2.189013,3.94653 c 1.204006,2.17039 2.437735,4.15437 2.741435,4.40903 0.687476,0.57652 1.379801,0.59184 1.837097,0.0408 0.1927,-0.23218 1.368298,-2.2655 2.612244,-4.51858 l 2.261877,-4.09639 2.066541,-0.8847 c 3.012438,-1.28952 5.309689,-2.87119 7.870837,-5.41931 5.04735,-5.02167 7.63903,-11.402 7.65173,-18.83865 0.0057,-3.346483 -0.342776,-5.764164 -1.189592,-8.258406 -0.2368,-0.697506 -0.382177,-1.316427 -0.322977,-1.375627 0.05916,-0.05916 1.050085,0.150002 2.201931,0.464572 1.69968,0.464176 2.86716,0.576012 6.19548,0.595312 4.55926,0.02638 6.14979,-0.311477 9.94513,-2.112533 6.77978,-3.217274 10.12773,-9.610338 8.43515,-16.108577 -2.67577,-10.27293 -16.31267,-13.597643 -31.807875,-7.754565 -1.346066,0.507583 -2.447396,0.839564 -2.447396,0.737422 0,-0.102141 0.126686,-1.128068 0.281636,-2.279447 0.52966,-3.935675 -0.736641,-7.625531 -3.663859,-10.677385 -1.904862,-1.985976 -1.920924,-2.151951 -0.433048,-4.39353 1.827282,-2.752916 4.7747,-4.889479 7.329268,-5.313371 1.119026,-0.18568 2.042253,-1.132879 2.042253,-2.095479 0,-0.333012 -0.30849,-0.971824 -0.68523,-1.419552 -0.594516,-0.706549 -0.857557,-0.81442 -1.991093,-0.81442 -3.933034,0 -8.655804,3.570028 -11.113533,8.400521 -0.46275,0.909501 -0.913056,1.649544 -1.000456,1.644344 -0.08737,-0.0052 -0.873017,-0.181916 -1.746147,-0.392741 -2.029592,-0.490067 -5.114148,-0.490067 -7.14375,0 -2.095438,0.505963 -1.954127,0.540266 -2.422591,-0.590145 -0.719936,-1.73721 -2.719885,-4.506115 -4.219897,-5.843054 -2.237979,-1.994677 -5.362743,-3.296045 -7.548893,-3.228744 z M 107.8575,68.119356 c 6.23571,0.058 11.1909,2.438765 12.69587,6.379456 0.59598,1.560628 0.46562,4.883657 -0.24598,6.272485 -1.73615,3.388313 -5.56976,5.802391 -10.47999,6.599081 -2.64961,0.429897 -6.20621,0.318597 -8.42945,-0.26355 -2.378818,-0.62289 -5.503976,-2.115093 -8.354017,-3.989421 -2.084344,-1.370774 -7.446359,-6.415004 -8.041886,-7.565429 -0.28812,-0.556586 -0.187656,-0.648356 1.809708,-1.652613 5.036905,-2.532502 11.438127,-4.6361 16.550925,-5.439461 1.54873,-0.243347 3.0558,-0.353932 4.49482,-0.340548 z m -63.364609,0.126608 c 3.771938,0.0024 6.492734,0.455354 11.079428,1.845365 4.76589,1.444314 11.939322,4.510994 11.939322,5.104081 0,0.433445 -2.009479,2.773618 -3.994071,4.651913 -3.485398,3.298701 -8.587746,6.195182 -12.821956,7.278108 -4.009874,1.025556 -9.387639,0.508186 -13.173357,-1.267106 -2.557198,-1.199176 -5.253193,-3.913169 -5.835819,-5.875093 -1.260706,-4.24525 0.334445,-8.04923 4.158919,-9.918775 2.890008,-1.412738 4.8311,-1.820893 8.647534,-1.818493 z m 41.472921,15.43575 2.612761,1.949752 c 2.284844,1.704596 2.753006,2.194688 3.726904,3.902604 1.196418,2.098126 2.458248,5.208537 2.458248,6.060095 0,0.51613 -0.247833,0.522966 -18.553906,0.522966 H 57.655912 l 0.160197,-0.802535 c 0.26447,-1.322358 1.514257,-4.252564 2.527495,-5.92677 0.718818,-1.187708 1.594826,-2.069785 3.596162,-3.620451 l 2.645834,-2.050004 9.689848,-0.01757 z M 69.636576,104.65924 c 10.807642,-0.0171 25.106761,0.0808 25.278561,0.2527 0.542269,0.54243 -1.709666,6.2296 -3.405994,8.60154 l -0.804085,1.12448 H 76.253743 61.802946 l -1.136882,-1.72857 c -1.870428,-2.84492 -3.599061,-7.65466 -2.906282,-8.08581 0.164655,-0.10247 5.39221,-0.15406 11.876794,-0.16434 z" /></g><g
       id="g30"><path
         style="fill:#000000"
         d="m 160.11564,56.16521 c -0.29701,-0.297011 -0.52917,-0.881944 -0.52917,-1.333276 0,-0.501912 1.29696,-3.397786 3.45104,-7.705558 1.89807,-3.795797 3.39064,-6.961844 3.31683,-7.035661 -0.0738,-0.07382 -2.0317,0.833842 -4.35084,2.017017 -2.31914,1.183176 -4.47439,2.151229 -4.78943,2.151229 -0.9179,0 -1.61351,-0.505625 -2.01388,-1.463849 -0.52954,-1.267364 -0.13818,-2.0822 1.40144,-2.917859 6.9545,-3.774687 14.09613,-7.340442 14.70869,-7.343925 1.58379,-0.009 1.85894,0.650748 3.62124,8.682925 2.07042,9.436544 2.10902,9.747355 1.31543,10.592092 -0.43473,0.462753 -0.89432,0.652699 -1.57927,0.652699 -1.60762,0 -1.9482,-0.633282 -2.91698,-5.423958 -0.47084,-2.328333 -0.94696,-4.404234 -1.05804,-4.613112 -0.13525,-0.254349 -1.32541,1.870226 -3.60357,6.432839 -1.87089,3.74694 -3.61461,7.043231 -3.87494,7.325091 -0.64941,0.70311 -2.38811,0.693742 -3.09855,-0.01669 z"
         id="path30" /><path
         style="fill:#000000"
         d="m 149.12341,73.772028 c -0.35992,-0.359914 -0.64944,-0.959303 -0.64944,-1.344519 0,-0.764643 5.4005,-9.362382 6.51705,-10.37532 0.36092,-0.327422 0.93117,-0.595312 1.26723,-0.595312 0.86975,0 1.93449,0.927344 2.14023,1.864051 0.15293,0.696283 -0.17685,1.364554 -2.55938,5.18636 -1.5042,2.412899 -3.05058,4.730682 -3.43638,5.15063 -0.92339,1.005099 -2.33906,1.05436 -3.27931,0.11411 z"
         id="path29" /><path
         style="fill:#000000"
         d="m 138.95697,87.841335 c -0.86971,-0.44007 -1.45201,-1.52428 -1.25031,-2.32795 0.13231,-0.52715 2.503,-3.627394 5.19403,-6.792447 1.12253,-1.320256 3.45662,-0.321347 3.45662,1.479311 0,0.799387 -0.34217,1.435792 -1.87457,3.486522 -3.28006,4.389574 -3.99663,4.928324 -5.52577,4.154564 z"
         id="path28" /><path
         style="fill:#000000"
         d="m 147.54793,96.755325 c -0.7276,-0.35374 -2.29367,-0.94335 -3.48014,-1.31026 -1.18648,-0.3669 -2.31486,-0.85704 -2.50753,-1.08919 -0.19267,-0.23215 -0.3503,-0.89593 -0.3503,-1.47508 0,-0.82364 0.16038,-1.19095 0.73634,-1.68637 0.40499,-0.34836 0.94289,-0.63338 1.19534,-0.63338 0.72141,0 5.20063,1.51185 6.63961,2.24103 2.1763,1.10282 2.73545,2.58714 1.48348,3.93804 -0.82142,0.88633 -1.91576,0.89081 -3.7168,0.0152 z"
         id="path27" /><path
         style="fill:#000000"
         d="m 127.69215,100.23037 c -0.76403,-0.764035 -0.84305,-1.860405 -0.20162,-2.797435 0.82189,-1.20065 5.19054,-6.10346 5.66452,-6.35713 1.70747,-0.9138 3.73259,1.03465 2.92273,2.81209 -0.38125,0.83677 -5.48161,6.627015 -6.0191,6.833265 -0.84556,0.32447 -1.73591,0.13982 -2.36653,-0.49079 z"
         id="path26" /><path
         style="fill:#000000"
         d="m 157.38136,111.95058 c -0.54128,-0.47654 -0.85608,-1.2263 -1.36232,-3.2447 -0.36211,-1.44372 -1.01726,-3.39184 -1.45589,-4.32917 -0.96166,-2.05502 -0.99217,-2.71193 -0.17034,-3.66736 0.47789,-0.55558 0.86424,-0.729135 1.62313,-0.729135 1.30732,0 1.93634,0.790615 3.1247,3.927395 1.63325,4.31108 1.99845,6.91423 1.09655,7.81614 -0.85669,0.85668 -2.03418,0.95021 -2.85583,0.22683 z"
         id="path25" /><path
         style="fill:#000000"
         d="m 119.62347,117.08552 c -0.52309,-0.65792 -0.56323,-0.93092 -0.41914,-2.8505 0.18306,-2.4388 0.83161,-5.06457 1.86096,-7.53439 1.13954,-2.73425 2.46262,-3.53781 3.92764,-2.38543 1.05061,0.82641 1.08562,1.58112 0.17845,3.84666 -0.97067,2.42413 -1.55736,5.03229 -1.56365,6.95131 -0.004,1.13113 -0.12972,1.52622 -0.65403,2.05052 -0.94521,0.94522 -2.54646,0.90763 -3.33023,-0.0782 z"
         id="path24" /><path
         style="fill:#000000"
         d="m 152.71404,128.40319 c -0.99553,-0.99553 -0.95159,-1.72179 0.2127,-3.51512 1.25562,-1.934 1.99679,-3.59335 2.54276,-5.69276 0.44238,-1.70105 1.14278,-2.44052 2.3116,-2.44052 1.99772,0 2.54256,1.23682 1.77524,4.02995 -0.66204,2.40993 -2.37318,5.99417 -3.44378,7.21352 -0.66915,0.76211 -0.99794,0.92736 -1.84516,0.92736 -0.67372,0 -1.21195,-0.18102 -1.55336,-0.52243 z"
         id="path23" /><path
         style="fill:#000000"
         d="m 128.43389,132.63334 c -2.00438,-1.33847 -4.97556,-4.47896 -5.97528,-6.31578 -0.87412,-1.60604 -0.79286,-2.63456 0.27448,-3.47413 1.28428,-1.01021 2.14839,-0.69227 3.49711,1.28671 0.96129,1.41051 3.36035,3.90721 5.24429,5.45773 0.72459,0.59635 0.8599,0.8849 0.8599,1.83381 0,1.23039 -0.46196,1.84486 -1.60052,2.12888 -0.51868,0.12939 -1.04992,-0.0825 -2.29998,-0.91722 z"
         id="path22" /><path
         style="fill:#000000"
         d="m 138.88865,136.38681 c -1.55947,-0.18771 -2.38259,-2.63703 -1.2626,-3.75702 0.33993,-0.33993 0.884,-0.52988 1.52136,-0.53117 1.52395,-0.003 4.22459,-0.4962 5.85421,-1.06896 1.90987,-0.67127 2.72881,-0.65222 3.38681,0.0788 0.79676,0.88516 0.91474,1.45351 0.50521,2.43367 -0.30044,0.71905 -0.65319,0.98913 -1.90234,1.45649 -2.70228,1.01105 -6.22374,1.61438 -8.10265,1.38822 z"
         id="path16" /><path
         style="fill:#000000"
         d="m 91.241238,143.36255 c -2.78071,-1.21399 -5.8978,-3.00954 -6.97378,-4.01713 -1.102781,-1.03268 -1.188361,-2.19898 -0.231561,-3.15578 0.963581,-0.96358 2.216641,-0.8705 3.823621,0.284 0.7146,0.51339 2.7961,1.64409 4.62556,2.51267 2.70138,1.28255 3.35752,1.70367 3.49252,2.24157 0.36374,1.44922 -0.6826,3.04658 -1.99154,3.04034 -0.37274,-0.002 -1.60791,-0.40933 -2.74482,-0.90567 z"
         id="path15" /><path
         style="fill:#000000"
         d="m 121.16891,145.05293 c -0.69315,-0.69315 -0.78417,-0.94069 -0.64998,-1.76761 0.0858,-0.52888 0.30886,-1.1113 0.49565,-1.29428 0.18678,-0.18298 1.52752,-0.7115 2.97942,-1.17449 1.4519,-0.46299 3.70223,-1.30932 5.00072,-1.88073 2.58075,-1.13568 3.54621,-1.16755 4.26538,-0.14079 0.46701,0.66675 0.5159,1.84985 0.10793,2.61213 -0.15909,0.29728 -1.27211,1.00108 -2.47336,1.56401 -2.47835,1.16139 -7.46277,2.88778 -8.33758,2.88778 -0.32019,0 -0.94487,-0.36271 -1.38818,-0.80602 z"
         id="path14" /><path
         style="fill:#000000"
         d="m 104.28855,147.07965 c -2.22094,-0.40816 -2.80116,-0.74943 -3.16898,-1.86392 -0.24493,-0.74215 -0.22335,-1.06192 0.11592,-1.71799 0.54496,-1.05385 1.32291,-1.219 3.79914,-0.80652 1.11763,0.18617 3.55519,0.32532 5.4168,0.30922 3.0152,-0.0261 3.44056,0.0265 3.89588,0.48185 1.1022,1.1022 0.83274,2.93061 -0.53376,3.62179 -0.84939,0.42964 -7.14212,0.4135 -9.525,-0.0244 z"
         id="path13" /></g></g></svg>
